<svg width="32" height="32" viewBox="0 0 32 32" fill="none" xmlns="http://www.w3.org/2000/svg">
  <!-- Background circle with brand green -->
  <circle cx="16" cy="16" r="16" fill="#97C758"/>
  
  <!-- Car silhouette in white -->
  <path d="M6 18h20v6c0 1-1 2-2 2h-2c0-1-1-2-2-2s-2 1-2 2h-4c0-1-1-2-2-2s-2 1-2 2H8c-1 0-2-1-2-2v-6z" fill="white"/>
  
  <!-- Car windows -->
  <path d="M8 14h16l-2-4H10l-2 4z" fill="white"/>
  
  <!-- Wheels -->
  <circle cx="11" cy="24" r="2" fill="white"/>
  <circle cx="21" cy="24" r="2" fill="white"/>
  
  <!-- Tool icon overlay -->
  <path d="M16 6l1 2h-2l1-2z" fill="white"/>
</svg> 